<svg width="72" height="72" viewBox="0 0 72 72" fill="none" xmlns="http://www.w3.org/2000/svg">
<g clip-path="url(#clip0_193_25)">
<path d="M36 72C55.8823 72 72 55.8823 72 36C72 16.1177 55.8823 0 36 0C16.1177 0 0 16.1177 0 36C0 55.8823 16.1177 72 36 72Z" fill="url(#paint0_linear_193_25)"/>
<path d="M52.1338 40.6162L48.3838 36.8662C48.1493 36.6319 47.8315 36.5003 47.5 36.5003C47.1685 36.5003 46.8507 36.6319 46.6162 36.8662L35 48.4825V54H40.5175L52.1338 42.3838C52.3681 42.1493 52.4997 41.8315 52.4997 41.5C52.4997 41.1685 52.3681 40.8507 52.1338 40.6162ZM39.4825 51.5H37.5V49.5175L43.75 43.2675L45.7325 45.25L39.4825 51.5ZM47.5 43.4825L45.5175 41.5L47.5 39.5175L49.4825 41.5L47.5 43.4825ZM37.5 39V34H40V39H37.5ZM32.5 39V31.5H35V39H32.5ZM27.5 39V26.5H30V39H27.5Z" fill="white"/>
<path d="M30 54H22.5C21.8372 53.9993 21.2017 53.7357 20.733 53.267C20.2643 52.7983 20.0007 52.1628 20 51.5V21.5C20.0007 20.8372 20.2643 20.2017 20.733 19.733C21.2017 19.2643 21.8372 19.0007 22.5 19H42.5C43.1628 19.0007 43.7983 19.2643 44.267 19.733C44.7357 20.2017 44.9993 20.8372 45 21.5V34H42.5V21.5H22.5V51.5H30V54Z" fill="white"/>
</g>
<defs>
<linearGradient id="paint0_linear_193_25" x1="0" y1="0" x2="7169.76" y2="7169.76" gradientUnits="userSpaceOnUse">
<stop stop-color="#33D35E"/>
<stop offset="1" stop-color="#2AB6D9"/>
</linearGradient>
<clipPath id="clip0_193_25">
<rect width="72" height="72" fill="white"/>
</clipPath>
</defs>
</svg>
