<svg width="72" height="72" viewBox="0 0 72 72" fill="none" xmlns="http://www.w3.org/2000/svg">
<g clip-path="url(#clip0_193_21)">
<path d="M36 72C55.8823 72 72 55.8823 72 36C72 16.1177 55.8823 0 36 0C16.1177 0 0 16.1177 0 36C0 55.8823 16.1177 72 36 72Z" fill="url(#paint0_linear_193_21)"/>
<path d="M50.5 35.2501V42.7501H20.5V22.7501H29.25V20.2501H20.5C19.837 20.2501 19.2011 20.5135 18.7322 20.9824C18.2634 21.4512 18 22.0871 18 22.7501V42.7501C18 43.4132 18.2634 44.0491 18.7322 44.5179C19.2011 44.9867 19.837 45.2501 20.5 45.2501H30.5V50.2501H25.5V52.7501H45.5V50.2501H40.5V45.2501H50.5C51.163 45.2501 51.7989 44.9867 52.2678 44.5179C52.7366 44.0491 53 43.4132 53 42.7501V35.2501H50.5ZM38 50.2501H33V45.2501H38V50.2501Z" fill="white"/>
<path d="M38 37.7501H37.9875C37.7182 37.7473 37.4569 37.6576 37.2427 37.4943C37.0285 37.331 36.8728 37.1029 36.7987 36.8439L34.5575 29.0001H29.25V26.5001H35.5C35.7717 26.5 36.036 26.5884 36.253 26.7519C36.47 26.9154 36.6278 27.1452 36.7025 27.4064L38.045 32.1064L41.8063 19.8814C41.8874 19.6277 42.0464 19.406 42.2607 19.2478C42.475 19.0896 42.7337 19.003 43 19.0001C43.2634 18.9962 43.521 19.0772 43.7347 19.2312C43.9484 19.3852 44.1067 19.604 44.1862 19.8551L46.4 26.5001H53V29.0001H45.5C45.2375 29.0002 44.9817 28.9177 44.7688 28.7642C44.5559 28.6107 44.3967 28.3941 44.3138 28.1451L43.0475 24.3451L39.195 36.8676C39.1164 37.1232 38.9579 37.3468 38.7428 37.5057C38.5277 37.6645 38.2674 37.7502 38 37.7501Z" fill="white"/>
</g>
<defs>
<linearGradient id="paint0_linear_193_21" x1="0" y1="0" x2="7169.76" y2="7169.76" gradientUnits="userSpaceOnUse">
<stop stop-color="#33D35E"/>
<stop offset="1" stop-color="#2AB6D9"/>
</linearGradient>
<clipPath id="clip0_193_21">
<rect width="72" height="72" fill="white"/>
</clipPath>
</defs>
</svg>
